<svg width="40" height="40" viewBox="0 0 40 40" fill="none" xmlns="http://www.w3.org/2000/svg">
<g clip-path="url(#clip0_2007_2363)">
<path fill-rule="evenodd" clip-rule="evenodd" d="M10.2932 4.03451C11.3377 3.47811 11.7334 2.1803 11.177 1.13579C10.6206 0.0912873 9.32277 -0.304383 8.27826 0.252037C5.32969 1.82277 2.69861 3.92766 0.518934 6.45951C-0.253197 7.3564 -0.152061 8.7094 0.744828 9.48151C1.64172 10.2537 2.99471 10.1525 3.76686 9.25563C5.60017 7.12609 7.8132 5.35569 10.2932 4.03451ZM20 40.0003C29.4677 40.0003 37.1429 32.3254 37.1429 22.8576C37.1429 13.3898 29.4677 5.71471 20 5.71471C10.5323 5.71471 2.85717 13.3898 2.85717 22.8576C2.85717 32.3254 10.5323 40.0003 20 40.0003ZM28.8231 1.13579C29.3794 0.0912873 30.6774 -0.304383 31.7217 0.252037C34.6703 1.82277 37.3014 3.92766 39.4811 6.45951C40.2531 7.3564 40.152 8.7094 39.2551 9.48151C38.3583 10.2537 37.0054 10.1525 36.2331 9.25563C34.4 7.12609 32.1869 5.35569 29.7069 4.03451C28.6623 3.47811 28.2667 2.1803 28.8231 1.13579ZM21.7857 14.2857C21.7857 13.2995 20.9862 12.5 20 12.5C19.0138 12.5 18.2143 13.2995 18.2143 14.2857V22.8571C18.2143 23.8434 19.0138 24.6429 20 24.6429H27.1429C28.1291 24.6429 28.9286 23.8434 28.9286 22.8571C28.9286 21.8709 28.1291 21.0714 27.1429 21.0714H21.7857V14.2857Z" fill="#0A0822"/>
</g>
<defs>
<clipPath id="clip0_2007_2363">
<rect width="40" height="40" fill="white"/>
</clipPath>
</defs>
</svg>
