<svg width="40" height="40" viewBox="0 0 40 40" fill="none" xmlns="http://www.w3.org/2000/svg">
<g clip-path="url(#clip0_2007_2357)">
<g clip-path="url(#clip1_2007_2357)">
<path fill-rule="evenodd" clip-rule="evenodd" d="M38.4657 27.6915C38.4657 36.183 30.7714 40.0001 20 40.0001C9.22859 40.0001 1.5343 36.183 1.5343 27.7515C1.5343 18.5201 6.15144 13.843 15.3829 9.16583L12.1143 3.07726C11.9193 2.7723 11.8107 2.42013 11.8001 2.0583C11.7895 1.69647 11.8773 1.33855 12.0541 1.0227C12.231 0.706848 12.4902 0.444915 12.8042 0.264828C13.1182 0.0847402 13.4752 -0.00674896 13.8372 0.000115608H26.8857C27.225 0.00879557 27.5564 0.103649 27.8489 0.275749C28.1413 0.44785 28.3852 0.691536 28.5575 0.983876C28.7299 1.27621 28.8249 1.60759 28.8339 1.94682C28.8428 2.28605 28.7653 2.62197 28.6086 2.92297L24.6172 9.16583C33.8457 13.7801 38.4657 18.4573 38.4657 27.6915ZM21.7857 13.963C21.7857 13.4894 21.5976 13.0352 21.2627 12.7003C20.9278 12.3654 20.4736 12.1773 20 12.1773C19.5264 12.1773 19.0722 12.3654 18.7373 12.7003C18.4024 13.0352 18.2143 13.4894 18.2143 13.963V15.7544C17.004 15.801 15.8523 16.2879 14.9756 17.1236C14.0988 17.9593 13.5573 19.0864 13.4528 20.2931C13.3483 21.4998 13.6879 22.7032 14.4078 23.6772C15.1278 24.6512 16.1786 25.3289 17.3629 25.583L21.5714 26.503C22.0028 26.5958 22.3845 26.8451 22.643 27.2027C22.9014 27.5604 23.0183 28.001 22.9711 28.4397C22.9239 28.8785 22.7159 29.2841 22.3873 29.5786C22.0587 29.8731 21.6327 30.0354 21.1914 30.0344H18.8086C18.4392 30.035 18.0787 29.921 17.7768 29.7081C17.4749 29.4952 17.2464 29.194 17.1229 28.8458C17.0507 28.6174 16.9334 28.4058 16.7778 28.2237C16.6222 28.0416 16.4315 27.8926 16.2172 27.7857C16.0028 27.6787 15.7691 27.616 15.53 27.6013C15.2909 27.5865 15.0513 27.62 14.8254 27.6998C14.5996 27.7796 14.392 27.904 14.2152 28.0656C14.0384 28.2272 13.8959 28.4228 13.7963 28.6406C13.6966 28.8584 13.6418 29.0941 13.635 29.3335C13.6283 29.573 13.6699 29.8113 13.7572 30.0344C14.093 30.9833 14.6891 31.8185 15.4773 32.4445C16.2655 33.0705 17.214 33.4621 18.2143 33.5744V35.3915C18.2143 35.8651 18.4024 36.3193 18.7373 36.6542C19.0722 36.9891 19.5264 37.1773 20 37.1773C20.4736 37.1773 20.9278 36.9891 21.2627 36.6542C21.5976 36.3193 21.7857 35.8651 21.7857 35.3915V33.5744C23.0465 33.4311 24.2155 32.8452 25.0848 31.9209C25.9541 30.9966 26.4673 29.7939 26.5331 28.5268C26.5989 27.2596 26.2131 26.0102 25.4442 25.0009C24.6754 23.9915 23.5734 23.2876 22.3343 23.0144L18.1257 22.0944C17.7843 22.0245 17.4812 21.8298 17.2757 21.5482C17.0702 21.2667 16.9771 20.9187 17.0146 20.5722C17.0521 20.2257 17.2175 19.9056 17.4785 19.6746C17.7395 19.4436 18.0772 19.3182 18.4257 19.323H21.1914C21.5611 19.3211 21.9222 19.4346 22.2244 19.6477C22.5265 19.8607 22.7547 20.1627 22.8772 20.5115C23.0433 20.947 23.3732 21.3002 23.7962 21.4957C24.2193 21.6913 24.702 21.7137 25.1414 21.5582C25.5807 21.4027 25.9419 21.0815 26.1477 20.6634C26.3535 20.2452 26.3877 19.7631 26.2429 19.3201C25.9075 18.3712 25.3114 17.5361 24.5231 16.9105C23.7347 16.2848 22.786 15.8941 21.7857 15.783V13.963Z" fill="#0A0822"/>
</g>
</g>
<defs>
<clipPath id="clip0_2007_2357">
<rect width="40" height="40" fill="white"/>
</clipPath>
<clipPath id="clip1_2007_2357">
<rect width="40" height="40" fill="white"/>
</clipPath>
</defs>
</svg>
