<svg width="16" height="17" viewBox="0 0 16 17" fill="none" xmlns="http://www.w3.org/2000/svg">
<g clip-path="url(#clip0_20_4954)">
<path d="M2 1.15674H14C14.348 1.15674 14.6833 1.27798 14.9502 1.49658L15.0605 1.59619C15.3419 1.8775 15.5 2.25891 15.5 2.65674V10.6567C15.5 11.0546 15.3419 11.436 15.0605 11.7173C14.7792 11.9986 14.3978 12.1567 14 12.1567H4.41406L4.26562 12.1646C3.97147 12.1938 3.69253 12.3093 3.46387 12.4966L3.35352 12.5962L0.5 15.4487V2.65674C0.5 2.30873 0.621242 1.97343 0.839844 1.70654L0.939453 1.59619C1.18554 1.3501 1.50826 1.19869 1.85156 1.16455L2 1.15674ZM10.0703 4.15674C9.06269 4.15674 8.19002 4.81227 7.92188 5.72998L7.87695 5.61768C7.82417 5.50078 7.76156 5.38888 7.69434 5.27979V5.271L7.60938 5.14404C7.52621 5.02012 7.4297 4.90583 7.32324 4.80127H7.32422L7.31543 4.79248H7.31445C7.14313 4.6198 6.9422 4.47978 6.7207 4.37939H6.72168L6.71387 4.37549L6.70703 4.37256L6.7002 4.36865L6.46777 4.27686C6.3103 4.22392 6.14759 4.18829 5.98242 4.17041L5.73438 4.15674C4.51899 4.15674 3.5 5.1082 3.5 6.32373C3.5 7.49662 4.45004 8.42043 5.60938 8.48291L5.50293 8.59424C5.43782 8.6583 5.38282 8.73179 5.33984 8.81201L5.30078 8.896C5.25389 9.01026 5.23111 9.13286 5.2334 9.25635C5.2357 9.3798 5.26337 9.50136 5.31445 9.61377C5.36558 9.72622 5.43871 9.82771 5.53027 9.91064V9.90967C5.87671 10.2269 6.4039 10.2371 6.76172 9.94775L6.83105 9.88525L6.83301 9.88428C7.64567 9.07466 8.03453 8.21034 8.13574 7.40674C8.5052 8.02484 9.17896 8.44125 9.94434 8.48291C9.91077 8.51893 9.87652 8.5559 9.83984 8.59229C9.77372 8.65705 9.71821 8.73165 9.6748 8.81299L9.63574 8.89697C9.58905 9.01128 9.56587 9.13387 9.56836 9.25732C9.57087 9.38077 9.59912 9.50243 9.65039 9.61475C9.70056 9.7246 9.77246 9.82308 9.86133 9.90479V9.90576C10.2076 10.2278 10.7381 10.2376 11.0967 9.94775L11.166 9.88525L11.168 9.88428C11.9777 9.07756 12.3666 8.21657 12.4697 7.41553L12.7725 7.22998H12.4883C12.5257 6.72911 12.4537 6.25592 12.3018 5.83838L12.2129 5.61768L12.2119 5.6167L12.0869 5.37061C12.0413 5.29055 11.9913 5.21281 11.9385 5.13721H11.9375C11.8537 5.01313 11.7586 4.89701 11.6514 4.79248H11.6504C11.479 4.61958 11.2774 4.47987 11.0557 4.37939H11.0566L11.0488 4.37549L11.042 4.37256L11.0352 4.36865L10.8037 4.27686C10.6463 4.22386 10.4835 4.18835 10.3184 4.17041L10.0703 4.15674Z" fill="url(#paint0_linear_20_4954)" stroke="url(#paint1_linear_20_4954)"/>
</g>
<defs>
<linearGradient id="paint0_linear_20_4954" x1="-2.29795" y1="-5.13779" x2="16.8536" y2="18.7239" gradientUnits="userSpaceOnUse">
<stop stop-color="#75EBBC"/>
<stop offset="1" stop-color="#64C9EA"/>
</linearGradient>
<linearGradient id="paint1_linear_20_4954" x1="-2.29795" y1="-5.13779" x2="16.8536" y2="18.7239" gradientUnits="userSpaceOnUse">
<stop stop-color="#75EBBC"/>
<stop offset="1" stop-color="#64C9EA"/>
</linearGradient>
<clipPath id="clip0_20_4954">
<rect width="16" height="16" fill="white" transform="translate(0 0.656738)"/>
</clipPath>
</defs>
</svg>
