<svg width="24" height="24" viewBox="0 0 24 24" fill="none" xmlns="http://www.w3.org/2000/svg">
<path d="M8.06004 5.10987C7.89299 5.01584 7.69627 4.98936 7.51029 5.03585C7.32432 5.08235 7.1632 5.19829 7.06004 5.35987L5.67004 7.62987C5.6458 7.66616 5.61312 7.69604 5.57481 7.71694C5.53649 7.73784 5.49368 7.74914 5.45004 7.74987H5.17004C5.09214 7.74823 5.01502 7.76559 4.94533 7.80044C4.87564 7.83528 4.81548 7.88657 4.77004 7.94987C4.72347 8.01196 4.69199 8.08405 4.67811 8.16042C4.66422 8.23679 4.66831 8.31535 4.69004 8.38987L6.19004 13.3899C6.21884 13.4946 6.28162 13.5868 6.3685 13.6519C6.45538 13.7171 6.56145 13.7515 6.67004 13.7499H11.67C11.774 13.7491 11.8752 13.7159 11.9594 13.655C12.0436 13.5941 12.1068 13.5084 12.14 13.4099L13.81 8.40987C13.8354 8.33494 13.8425 8.25509 13.831 8.17685C13.8194 8.09862 13.7895 8.02424 13.7436 7.95982C13.6977 7.8954 13.6373 7.84278 13.5671 7.80628C13.4969 7.76979 13.4191 7.75045 13.34 7.74987H12.89C12.8464 7.74914 12.8036 7.73784 12.7653 7.71694C12.727 7.69604 12.6943 7.66616 12.67 7.62987L11.31 5.35987C11.2066 5.18615 11.0384 5.06064 10.8424 5.01094C10.6465 4.96124 10.4388 4.99143 10.265 5.09487C10.0913 5.1983 9.96581 5.36651 9.91612 5.56248C9.86642 5.75846 9.89661 5.96615 10 6.13987L10.74 7.36987C10.7594 7.40869 10.7695 7.45148 10.7695 7.49487C10.7695 7.53825 10.7594 7.58104 10.74 7.61987C10.7185 7.65932 10.6866 7.69222 10.6479 7.7151C10.6092 7.73798 10.565 7.74999 10.52 7.74987H7.79004C7.74628 7.74809 7.70367 7.73529 7.66618 7.71265C7.62868 7.69 7.59752 7.65826 7.57557 7.62035C7.55363 7.58244 7.54161 7.53961 7.54065 7.49582C7.53968 7.45203 7.54979 7.4087 7.57004 7.36987L8.31004 6.13987C8.41334 5.97009 8.44502 5.76626 8.39815 5.57314C8.35128 5.38002 8.22967 5.2134 8.06004 5.10987Z" fill="#54E2A9"/>
<path d="M23.64 18.17C23.712 17.851 23.6601 17.5166 23.4948 17.2345C23.3296 16.9523 23.0634 16.7434 22.75 16.65L19 15.56C18.9481 15.5449 18.9025 15.5133 18.87 15.47C18.8376 15.4267 18.82 15.3741 18.82 15.32V10.75C18.82 10.4848 18.7147 10.2304 18.5271 10.0429C18.3396 9.85536 18.0853 9.75 17.82 9.75C17.5548 9.75 17.3005 9.85536 17.1129 10.0429C16.9254 10.2304 16.82 10.4848 16.82 10.75V17.81C16.82 17.8641 16.8025 17.9167 16.77 17.96C16.7376 18.0033 16.692 18.0349 16.64 18.05C16.5887 18.064 16.5344 18.0619 16.4843 18.044C16.4343 18.0261 16.3909 17.9933 16.36 17.95C14.88 15.81 12.56 16.49 13.65 18.16L16.65 22.64C16.6709 22.6742 16.7004 22.7023 16.7354 22.7216C16.7705 22.7409 16.81 22.7507 16.85 22.75H22.63C22.6894 22.7488 22.7466 22.7273 22.7921 22.6891C22.8376 22.6509 22.8686 22.5983 22.88 22.54L23.61 18.54L23.64 18.17Z" fill="#54E2A9"/>
<path d="M12.83 20.25C12.83 19.9848 12.7247 19.7304 12.5371 19.5429C12.3496 19.3553 12.0952 19.25 11.83 19.25H11.58C11.5137 19.25 11.4501 19.2236 11.4032 19.1768C11.3564 19.1299 11.33 19.0663 11.33 19V18.47C11.3311 18.4132 11.3516 18.3585 11.3879 18.3149C11.4243 18.2713 11.4744 18.2413 11.53 18.23C11.7952 18.2035 12.0391 18.0727 12.2078 17.8664C12.3766 17.6601 12.4565 17.3952 12.43 17.13C12.4035 16.8648 12.2727 16.6209 12.0664 16.4522C11.8601 16.2834 11.5952 16.2035 11.33 16.23H2.83002C2.69741 16.23 2.57023 16.1773 2.47646 16.0835C2.3827 15.9898 2.33002 15.8626 2.33002 15.73V3.72998C2.33002 3.59737 2.3827 3.4702 2.47646 3.37643C2.57023 3.28266 2.69741 3.22998 2.83002 3.22998H20.83C20.9626 3.22998 21.0898 3.28266 21.1836 3.37643C21.2773 3.4702 21.33 3.59737 21.33 3.72998V14.23C21.33 14.4952 21.4354 14.7496 21.6229 14.9371C21.8104 15.1246 22.0648 15.23 22.33 15.23C22.5952 15.23 22.8496 15.1246 23.0371 14.9371C23.2247 14.7496 23.33 14.4952 23.33 14.23V3.22998C23.33 2.69955 23.1193 2.19084 22.7442 1.81577C22.3692 1.44069 21.8605 1.22998 21.33 1.22998H2.33002C1.79958 1.22998 1.29088 1.44069 0.915804 1.81577C0.540731 2.19084 0.330017 2.69955 0.330017 3.22998V16.23C0.330017 16.7604 0.540731 17.2691 0.915804 17.6442C1.29088 18.0193 1.79958 18.23 2.33002 18.23H9.08002C9.14632 18.23 9.20991 18.2563 9.25679 18.3032C9.30368 18.3501 9.33002 18.4137 9.33002 18.48V19C9.33002 19.0663 9.30368 19.1299 9.25679 19.1768C9.20991 19.2236 9.14632 19.25 9.08002 19.25H6.83002C6.5648 19.25 6.31045 19.3553 6.12291 19.5429C5.93537 19.7304 5.83002 19.9848 5.83002 20.25C5.83002 20.5152 5.93537 20.7696 6.12291 20.9571C6.31045 21.1446 6.5648 21.25 6.83002 21.25H11.83C12.0952 21.25 12.3496 21.1446 12.5371 20.9571C12.7247 20.7696 12.83 20.5152 12.83 20.25Z" fill="#54E2A9"/>
</svg>
