<svg width="24" height="24" viewBox="0 0 24 24" fill="none" xmlns="http://www.w3.org/2000/svg">
<g clip-path="url(#clip0_28_1850)">
<path fill-rule="evenodd" clip-rule="evenodd" d="M22.8737 6.7782C22.6445 6.86043 22.3967 6.87589 22.1591 6.82278C21.9215 6.76967 21.7038 6.65018 21.5314 6.4782L20.5851 5.5302L13.3903 12.7251C13.2709 12.8445 13.1291 12.9393 12.9731 13.004C12.817 13.0686 12.6498 13.1019 12.4809 13.1019C12.312 13.1019 12.1447 13.0686 11.9887 13.004C11.8326 12.9393 11.6908 12.8445 11.5714 12.7251L8.82686 9.98049L2.28858 16.5188C2.16992 16.6415 2.028 16.7394 1.8711 16.8067C1.71421 16.874 1.54548 16.9094 1.37477 16.9108C1.20405 16.9122 1.03476 16.8796 0.876787 16.8149C0.718808 16.7502 0.575301 16.6546 0.45464 16.5338C0.333978 16.4131 0.238578 16.2695 0.174005 16.1114C0.109433 15.9534 0.0769817 15.7841 0.0785451 15.6134C0.0801085 15.4426 0.115655 15.2739 0.183111 15.1171C0.250567 14.9603 0.348581 14.8185 0.471435 14.6999L7.91486 7.25135C8.03426 7.13187 8.17604 7.03709 8.33208 6.97243C8.48812 6.90776 8.65538 6.87448 8.82429 6.87448C8.9932 6.87448 9.16046 6.90776 9.3165 6.97243C9.47255 7.03709 9.61432 7.13187 9.73372 7.25135L12.48 9.99763L18.7663 3.71135L17.82 2.76506C17.6477 2.59296 17.5278 2.37545 17.4743 2.13785C17.4208 1.90026 17.4358 1.65235 17.5177 1.42299C17.5996 1.19363 17.745 0.992244 17.9369 0.842282C18.1288 0.692321 18.3594 0.599949 18.6017 0.575919C20.1669 0.421634 21.0669 0.421634 22.5737 0.575919C22.8678 0.606326 23.1424 0.73715 23.3513 0.946357C23.5602 1.15556 23.6906 1.43037 23.7206 1.72449C23.8766 3.22963 23.8749 4.13135 23.7206 5.69478C23.6965 5.93701 23.6041 6.16743 23.4542 6.35922C23.3042 6.55102 23.103 6.69631 22.8737 6.7782ZM20.0914 9.36335C20.2857 9.17499 20.5344 9.05272 20.8022 9.01393C21.07 8.97515 21.3432 9.02184 21.5829 9.14735L23.2491 10.0216C23.4648 10.1351 23.6437 10.3075 23.7651 10.5187C23.8865 10.73 23.9454 10.9714 23.9349 11.2148L23.4617 22.5085C23.448 22.8402 23.3065 23.1537 23.0669 23.3835C22.8272 23.6132 22.508 23.7413 22.176 23.7411H18.7954C18.6818 23.7411 18.5728 23.6959 18.4924 23.6155C18.412 23.5352 18.3669 23.4262 18.3669 23.3125V11.2165C18.3667 11.1589 18.3782 11.102 18.4006 11.0489C18.423 10.9959 18.4558 10.948 18.4971 10.9079L20.0914 9.36335ZM16.224 23.3125C16.224 23.4262 16.1789 23.5352 16.0985 23.6155C16.0181 23.6959 15.9091 23.7411 15.7954 23.7411H9.36686C9.2532 23.7411 9.14419 23.6959 9.06382 23.6155C8.98344 23.5352 8.93829 23.4262 8.93829 23.3125V13.3456C8.93829 13.3113 8.96401 13.2839 8.99829 13.2873C9.27772 13.3011 9.55201 13.4073 9.77829 13.6045L12.5983 16.0799C12.6792 16.1511 12.7839 16.1892 12.8915 16.1866C12.9992 16.1841 13.102 16.1411 13.1794 16.0662L15.4971 13.8171C15.5577 13.7584 15.6341 13.7189 15.7169 13.7035C15.7998 13.688 15.8853 13.6974 15.9629 13.7303C16.0405 13.7632 16.1066 13.8183 16.1531 13.8886C16.1995 13.9589 16.2242 14.0414 16.224 14.1256V23.3125ZM6.06001 15.6616L0.728578 21.1062C0.492619 21.3464 0.360284 21.6695 0.360006 22.0062V22.4553C0.360006 23.1651 0.936006 23.7411 1.64572 23.7411H6.36686C6.48053 23.7411 6.58954 23.6959 6.66991 23.6155C6.75028 23.5352 6.79543 23.4262 6.79543 23.3125V15.9616C6.7956 15.8763 6.7703 15.7929 6.72279 15.7221C6.67528 15.6513 6.60772 15.5962 6.52874 15.564C6.44976 15.5318 6.36297 15.5239 6.27947 15.5413C6.19596 15.5586 6.11955 15.6006 6.06001 15.6616Z" fill="#A884F5"/>
</g>
<defs>
<clipPath id="clip0_28_1850">
<rect width="24" height="24" fill="white"/>
</clipPath>
</defs>
</svg>
