<svg width="40" height="40" viewBox="0 0 40 40" fill="none" xmlns="http://www.w3.org/2000/svg">
<path d="M36.5846 3.41528H3.41538C1.74998 3.41521 0.399994 4.76525 0.399994 6.43066V33.5691C0.399994 35.2345 1.74998 36.5846 3.41538 36.5845H15.4769C16.1259 36.5846 16.7021 36.1693 16.9073 35.5536L19.7022 27.1709L26.5961 24.4155C26.9787 24.261 27.2821 23.9576 27.4367 23.575L30.192 16.6867L38.5748 13.8919C39.1882 13.6847 39.6009 13.1089 39.6 12.4614V6.43066C39.6 4.76531 38.25 3.41528 36.5846 3.41528ZM17.9269 24.6304C17.5149 24.7951 17.1964 25.1329 17.0562 25.5538L14.3895 33.5691H3.41538V26.1607L12.1487 17.4255C12.7376 16.8359 13.6931 16.8359 14.2821 17.4255L20.4711 23.6146L17.9269 24.6304ZM39.6 18.8182V33.5691C39.6 35.2344 38.2499 36.5844 36.5846 36.5845H21.8337C20.8046 36.5846 20.0778 35.5763 20.4033 34.6L21.8997 30.1146C22.0395 29.6941 22.3572 29.3563 22.7685 29.1912L29.5098 26.4943L32.2067 19.753C32.3718 19.3418 32.7096 19.024 33.1301 18.8842L37.6155 17.3878C38.5918 17.0623 39.6001 17.7891 39.6 18.8182Z" fill="#0A0822"/>
</svg>
