<svg width="17" height="16" viewBox="0 0 17 16" fill="none" xmlns="http://www.w3.org/2000/svg">
<g clip-path="url(#clip0_14_68)">
<path d="M8.5 0.833252C8.59944 0.833252 8.69581 0.862883 8.77734 0.917236L8.85352 0.979736C8.94728 1.0735 9 1.20064 9 1.33325V3.33325C9 3.43269 8.97037 3.52906 8.91602 3.6106L8.85352 3.68677C8.75975 3.78054 8.63261 3.83325 8.5 3.83325C8.40056 3.83325 8.30419 3.80362 8.22266 3.74927L8.14648 3.68677C8.05272 3.593 8 3.46586 8 3.33325V1.33325L8.00977 1.2356C8.02255 1.17143 8.04769 1.11035 8.08398 1.05591L8.14648 0.979736C8.21689 0.909333 8.30611 0.862188 8.40234 0.843018L8.5 0.833252Z" fill="url(#paint0_linear_14_68)" stroke="url(#paint1_linear_14_68)"/>
<path d="M3.88306 2.87231C4.01983 2.87231 4.15097 2.92661 4.24829 3.02271V3.02173L5.6604 4.42798V4.427C5.7125 4.47936 5.75195 4.54257 5.77661 4.61157L5.79614 4.68286C5.81052 4.75555 5.80914 4.83032 5.79126 4.90161L5.76782 4.97095C5.7395 5.03934 5.69618 5.10028 5.64185 5.14966L5.58423 5.19556C5.50208 5.2505 5.40473 5.27848 5.30591 5.27856C5.2068 5.27825 5.11075 5.24986 5.02954 5.19556L4.95337 5.13306L4.95142 5.13013L3.51978 3.71899C3.45081 3.64853 3.40394 3.56032 3.38403 3.46509L3.37329 3.36646C3.37342 3.33559 3.37616 3.30481 3.38208 3.27466L3.4104 3.18188C3.4228 3.15201 3.43833 3.12363 3.4563 3.09692L3.51782 3.02271C3.61509 2.92666 3.74637 2.87238 3.88306 2.87231Z" fill="url(#paint2_linear_14_68)" stroke="url(#paint3_linear_14_68)"/>
<path d="M1.83331 7.5H3.83331C3.93275 7.5 4.02912 7.52963 4.11066 7.58398L4.18683 7.64648C4.2806 7.74025 4.33331 7.86739 4.33331 8C4.33331 8.09944 4.30368 8.19581 4.24933 8.27734L4.18683 8.35352C4.09306 8.44728 3.96592 8.5 3.83331 8.5H1.83331C1.73388 8.5 1.6375 8.47037 1.55597 8.41602L1.4798 8.35352C1.38603 8.25975 1.33331 8.13261 1.33331 8L1.34308 7.90234C1.35586 7.83817 1.38101 7.7771 1.4173 7.72266L1.4798 7.64648C1.5502 7.57608 1.63943 7.52894 1.73566 7.50977L1.83331 7.5Z" fill="url(#paint4_linear_14_68)" stroke="url(#paint5_linear_14_68)"/>
<path d="M5.15424 10.8467C5.22434 10.8506 5.29238 10.8696 5.35443 10.9014L5.41693 10.9385C5.47638 10.9808 5.52566 11.0357 5.56146 11.0986L5.59271 11.1641C5.62797 11.2544 5.636 11.3533 5.61615 11.4482C5.60119 11.5195 5.57047 11.5866 5.52728 11.6445L5.48041 11.6992L5.47845 11.7012L4.08099 13.1123C3.98611 13.2067 3.8574 13.2597 3.72357 13.2598C3.59017 13.2598 3.46196 13.207 3.36713 13.1133C3.27514 13.0187 3.22357 12.8918 3.22357 12.7598C3.22362 12.66 3.25345 12.5635 3.30756 12.4814L3.36908 12.4043L4.78217 11.0244L4.79291 11.0146L4.8017 11.0049C4.82464 10.9798 4.85039 10.9571 4.87787 10.9375L4.96576 10.8877C5.02519 10.8618 5.08946 10.8475 5.15424 10.8467Z" fill="url(#paint6_linear_14_68)" stroke="url(#paint7_linear_14_68)"/>
<path d="M8.5 12.1665C8.63261 12.1665 8.75975 12.2192 8.85352 12.313C8.94728 12.4068 9 12.5339 9 12.6665V14.6665C9 14.7659 8.97037 14.8623 8.91602 14.9438L8.85352 15.02C8.75975 15.1138 8.63261 15.1665 8.5 15.1665C8.40056 15.1665 8.30419 15.1369 8.22266 15.0825L8.14648 15.02C8.05272 14.9263 8 14.7991 8 14.6665V12.6665L8.00977 12.5688C8.02255 12.5047 8.04769 12.4436 8.08398 12.3892L8.14648 12.313C8.24025 12.2192 8.36739 12.1665 8.5 12.1665Z" fill="url(#paint8_linear_14_68)" stroke="url(#paint9_linear_14_68)"/>
<path d="M11.9066 10.874C12.006 10.874 12.1024 10.9037 12.1839 10.958L12.2601 11.0205H12.261L13.6741 12.4277L13.6751 12.4287C13.6983 12.4517 13.7195 12.4769 13.7376 12.5039L13.7835 12.5898C13.7959 12.6201 13.8057 12.6516 13.8118 12.6836L13.8196 12.7812V12.7881C13.82 12.9181 13.77 13.0424 13.681 13.1367C13.5841 13.2308 13.4556 13.2837 13.3206 13.2852C13.2209 13.284 13.1242 13.2556 13.0423 13.2012L12.9651 13.1377L11.554 11.7266C11.4604 11.6328 11.4075 11.5055 11.4075 11.373C11.4076 11.2409 11.4599 11.1142 11.553 11.0205C11.6468 10.9269 11.7741 10.874 11.9066 10.874Z" fill="url(#paint10_linear_14_68)" stroke="url(#paint11_linear_14_68)"/>
<path d="M13.1666 7.5H15.1666C15.2661 7.5 15.3624 7.52963 15.444 7.58398L15.5201 7.64648C15.6139 7.74025 15.6666 7.86739 15.6666 8C15.6666 8.09944 15.637 8.19581 15.5826 8.27734L15.5201 8.35352C15.4264 8.44728 15.2992 8.5 15.1666 8.5H13.1666C13.034 8.5 12.9069 8.44728 12.8131 8.35352C12.7193 8.25975 12.6666 8.13261 12.6666 8C12.6666 7.90056 12.6963 7.80419 12.7506 7.72266L12.8131 7.64648C12.8835 7.57608 12.9727 7.52894 13.069 7.50977L13.1666 7.5Z" fill="url(#paint12_linear_14_68)" stroke="url(#paint13_linear_14_68)"/>
<path d="M13.1901 2.77271H13.194C13.2709 2.7685 13.3474 2.7818 13.4176 2.81177L13.485 2.84692C13.5503 2.88746 13.6048 2.94247 13.6451 3.00708L13.6813 3.07446C13.7116 3.14519 13.7244 3.22192 13.7203 3.2981L13.7106 3.37329C13.6897 3.47365 13.6387 3.56573 13.5641 3.63599L13.5582 3.64087L13.5533 3.64673L12.1403 5.05884C12.0455 5.15303 11.9175 5.20617 11.7838 5.2063C11.6832 5.2063 11.5851 5.1763 11.5026 5.12134L11.4264 5.05884C11.3333 4.96517 11.2809 4.83838 11.2809 4.7063C11.2809 4.60688 11.3105 4.51046 11.3649 4.42896L11.4274 4.35278L12.8522 2.92114C12.9199 2.85389 13.0046 2.80702 13.0963 2.7854L13.1901 2.77271Z" fill="url(#paint14_linear_14_68)" stroke="url(#paint15_linear_14_68)"/>
</g>
<defs>
<linearGradient id="paint0_linear_14_68" x1="7.21276" y1="-1.18236" x2="11.7237" y2="1.5036" gradientUnits="userSpaceOnUse">
<stop stop-color="#75EBBC"/>
<stop offset="1" stop-color="#64C9EA"/>
</linearGradient>
<linearGradient id="paint1_linear_14_68" x1="7.21276" y1="-1.18236" x2="11.7237" y2="1.5036" gradientUnits="userSpaceOnUse">
<stop stop-color="#75EBBC"/>
<stop offset="1" stop-color="#64C9EA"/>
</linearGradient>
<linearGradient id="paint2_linear_14_68" x1="2.38031" y1="1.08119" x2="6.67982" y2="6.23883" gradientUnits="userSpaceOnUse">
<stop stop-color="#75EBBC"/>
<stop offset="1" stop-color="#64C9EA"/>
</linearGradient>
<linearGradient id="paint3_linear_14_68" x1="2.38031" y1="1.08119" x2="6.67982" y2="6.23883" gradientUnits="userSpaceOnUse">
<stop stop-color="#75EBBC"/>
<stop offset="1" stop-color="#64C9EA"/>
</linearGradient>
<linearGradient id="paint4_linear_14_68" x1="0.258825" y1="6.24219" x2="2.09022" y2="10.6041" gradientUnits="userSpaceOnUse">
<stop stop-color="#75EBBC"/>
<stop offset="1" stop-color="#64C9EA"/>
</linearGradient>
<linearGradient id="paint5_linear_14_68" x1="0.258825" y1="6.24219" x2="2.09022" y2="10.6041" gradientUnits="userSpaceOnUse">
<stop stop-color="#75EBBC"/>
<stop offset="1" stop-color="#64C9EA"/>
</linearGradient>
<linearGradient id="paint6_linear_14_68" x1="2.23483" y1="9.05346" x2="6.54902" y2="14.176" gradientUnits="userSpaceOnUse">
<stop stop-color="#75EBBC"/>
<stop offset="1" stop-color="#64C9EA"/>
</linearGradient>
<linearGradient id="paint7_linear_14_68" x1="2.23483" y1="9.05346" x2="6.54902" y2="14.176" gradientUnits="userSpaceOnUse">
<stop stop-color="#75EBBC"/>
<stop offset="1" stop-color="#64C9EA"/>
</linearGradient>
<linearGradient id="paint8_linear_14_68" x1="7.21276" y1="10.1509" x2="11.7237" y2="12.8368" gradientUnits="userSpaceOnUse">
<stop stop-color="#75EBBC"/>
<stop offset="1" stop-color="#64C9EA"/>
</linearGradient>
<linearGradient id="paint9_linear_14_68" x1="7.21276" y1="10.1509" x2="11.7237" y2="12.8368" gradientUnits="userSpaceOnUse">
<stop stop-color="#75EBBC"/>
<stop offset="1" stop-color="#64C9EA"/>
</linearGradient>
<linearGradient id="paint10_linear_14_68" x1="10.4174" y1="9.08103" x2="14.7287" y2="14.2153" gradientUnits="userSpaceOnUse">
<stop stop-color="#75EBBC"/>
<stop offset="1" stop-color="#64C9EA"/>
</linearGradient>
<linearGradient id="paint11_linear_14_68" x1="10.4174" y1="9.08103" x2="14.7287" y2="14.2153" gradientUnits="userSpaceOnUse">
<stop stop-color="#75EBBC"/>
<stop offset="1" stop-color="#64C9EA"/>
</linearGradient>
<linearGradient id="paint12_linear_14_68" x1="11.5921" y1="6.24219" x2="13.4235" y2="10.6041" gradientUnits="userSpaceOnUse">
<stop stop-color="#75EBBC"/>
<stop offset="1" stop-color="#64C9EA"/>
</linearGradient>
<linearGradient id="paint13_linear_14_68" x1="11.5921" y1="6.24219" x2="13.4235" y2="10.6041" gradientUnits="userSpaceOnUse">
<stop stop-color="#75EBBC"/>
<stop offset="1" stop-color="#64C9EA"/>
</linearGradient>
<linearGradient id="paint14_linear_14_68" x1="10.2868" y1="0.970376" x2="14.6246" y2="6.14503" gradientUnits="userSpaceOnUse">
<stop stop-color="#75EBBC"/>
<stop offset="1" stop-color="#64C9EA"/>
</linearGradient>
<linearGradient id="paint15_linear_14_68" x1="10.2868" y1="0.970376" x2="14.6246" y2="6.14503" gradientUnits="userSpaceOnUse">
<stop stop-color="#75EBBC"/>
<stop offset="1" stop-color="#64C9EA"/>
</linearGradient>
<clipPath id="clip0_14_68">
<rect width="16" height="16" fill="white" transform="translate(0.5)"/>
</clipPath>
</defs>
</svg>
