<svg width="117" height="34" viewBox="0 0 117 34" fill="none" xmlns="http://www.w3.org/2000/svg">
<rect x="0.5" y="1" width="116" height="32" fill="white"/>
<rect x="0.5" y="1" width="116" height="32" stroke="#0A0822"/>
<rect width="56" height="25" transform="translate(4 4.5)" fill="#0A0822"/>
<path d="M13.3635 17.3885C13.7828 17.3885 14.1483 17.3375 14.46 17.2355C14.7717 17.1278 15.0295 16.9777 15.2335 16.785C15.4432 16.5867 15.599 16.3487 15.701 16.071C15.803 15.7877 15.854 15.4732 15.854 15.1275C15.854 14.7988 15.803 14.5013 15.701 14.235C15.599 13.9687 15.446 13.742 15.242 13.555C15.038 13.368 14.7802 13.2263 14.4685 13.13C14.1568 13.028 13.7885 12.977 13.3635 12.977H11.655V17.3885H13.3635ZM13.3635 11.209C14.1852 11.209 14.8963 11.3053 15.497 11.498C16.0977 11.6907 16.5935 11.9598 16.9845 12.3055C17.3755 12.6512 17.6645 13.0648 17.8515 13.5465C18.0442 14.0282 18.1405 14.5552 18.1405 15.1275C18.1405 15.7225 18.0413 16.2693 17.843 16.768C17.6447 17.261 17.3472 17.686 16.9505 18.043C16.5538 18.4 16.0552 18.6777 15.4545 18.876C14.8595 19.0743 14.1625 19.1735 13.3635 19.1735H11.655V23.5H9.3685V11.209H13.3635ZM23.6084 17.057C24.0391 17.057 24.4131 17.0032 24.7304 16.8955C25.0534 16.7878 25.3169 16.6405 25.5209 16.4535C25.7306 16.2608 25.8864 16.0342 25.9884 15.7735C26.0904 15.5128 26.1414 15.2267 26.1414 14.915C26.1414 14.2917 25.9346 13.8128 25.5209 13.4785C25.1129 13.1442 24.4867 12.977 23.6424 12.977H22.1804V17.057H23.6084ZM29.4904 23.5H27.4249C27.0339 23.5 26.7506 23.347 26.5749 23.041L23.9909 19.1055C23.8946 18.9582 23.7869 18.8533 23.6679 18.791C23.5546 18.7287 23.3846 18.6975 23.1579 18.6975H22.1804V23.5H19.8939V11.209H23.6424C24.4754 11.209 25.1894 11.2968 25.7844 11.4725C26.3851 11.6425 26.8752 11.8833 27.2549 12.195C27.6402 12.5067 27.9236 12.8807 28.1049 13.317C28.2862 13.7477 28.3769 14.2237 28.3769 14.745C28.3769 15.1587 28.3146 15.5497 28.1899 15.918C28.0709 16.2863 27.8952 16.6207 27.6629 16.921C27.4362 17.2213 27.1529 17.4848 26.8129 17.7115C26.4786 17.9382 26.0961 18.1167 25.6654 18.247C25.8127 18.332 25.9487 18.434 26.0734 18.553C26.1981 18.6663 26.3114 18.8023 26.4134 18.961L29.4904 23.5ZM42.3732 17.3545C42.3732 18.2555 42.223 19.0913 41.9227 19.862C41.628 20.627 41.2087 21.29 40.6647 21.851C40.1207 22.412 39.4662 22.8512 38.7012 23.1685C37.9362 23.4802 37.0862 23.636 36.1512 23.636C35.2219 23.636 34.3747 23.4802 33.6097 23.1685C32.8447 22.8512 32.1874 22.412 31.6377 21.851C31.0937 21.29 30.6715 20.627 30.3712 19.862C30.0709 19.0913 29.9207 18.2555 29.9207 17.3545C29.9207 16.4535 30.0709 15.6205 30.3712 14.8555C30.6715 14.0848 31.0937 13.419 31.6377 12.858C32.1874 12.297 32.8447 11.8607 33.6097 11.549C34.3747 11.2317 35.2219 11.073 36.1512 11.073C36.7745 11.073 37.361 11.1467 37.9107 11.294C38.4604 11.4357 38.9647 11.6397 39.4237 11.906C39.8827 12.1667 40.2935 12.4868 40.6562 12.8665C41.0245 13.2405 41.3362 13.6598 41.5912 14.1245C41.8462 14.5892 42.0389 15.0935 42.1692 15.6375C42.3052 16.1815 42.3732 16.7538 42.3732 17.3545ZM40.0357 17.3545C40.0357 16.6802 39.945 16.0767 39.7637 15.544C39.5824 15.0057 39.3245 14.5495 38.9902 14.1755C38.6559 13.8015 38.2479 13.5153 37.7662 13.317C37.2902 13.1187 36.7519 13.0195 36.1512 13.0195C35.5505 13.0195 35.0094 13.1187 34.5277 13.317C34.0517 13.5153 33.6437 13.8015 33.3037 14.1755C32.9694 14.5495 32.7115 15.0057 32.5302 15.544C32.3489 16.0767 32.2582 16.6802 32.2582 17.3545C32.2582 18.0288 32.3489 18.6352 32.5302 19.1735C32.7115 19.7062 32.9694 20.1595 33.3037 20.5335C33.6437 20.9018 34.0517 21.1852 34.5277 21.3835C35.0094 21.5818 35.5505 21.681 36.1512 21.681C36.7519 21.681 37.2902 21.5818 37.7662 21.3835C38.2479 21.1852 38.6559 20.9018 38.9902 20.5335C39.3245 20.1595 39.5824 19.7062 39.7637 19.1735C39.945 18.6352 40.0357 18.0288 40.0357 17.3545ZM55.2952 17.3545C55.2952 18.2555 55.145 19.0828 54.8447 19.8365C54.5444 20.5902 54.1222 21.239 53.5782 21.783C53.0342 22.327 52.3797 22.7492 51.6147 23.0495C50.8497 23.3498 49.9997 23.5 49.0647 23.5H44.3812V11.209H49.0647C49.9997 11.209 50.8497 11.362 51.6147 11.668C52.3797 11.9683 53.0342 12.3905 53.5782 12.9345C54.1222 13.4728 54.5444 14.1188 54.8447 14.8725C55.145 15.6262 55.2952 16.4535 55.2952 17.3545ZM52.9492 17.3545C52.9492 16.6802 52.8585 16.0767 52.6772 15.544C52.5015 15.0057 52.2437 14.5523 51.9037 14.184C51.5694 13.81 51.1614 13.5238 50.6797 13.3255C50.2037 13.1272 49.6654 13.028 49.0647 13.028H46.6762V21.681H49.0647C49.6654 21.681 50.2037 21.5818 50.6797 21.3835C51.1614 21.1852 51.5694 20.9018 51.9037 20.5335C52.2437 20.1595 52.5015 19.7062 52.6772 19.1735C52.8585 18.6352 52.9492 18.0288 52.9492 17.3545Z" fill="white"/>
<path d="M75.9135 13.4445C75.8455 13.5635 75.7718 13.6513 75.6925 13.708C75.6188 13.759 75.5253 13.7845 75.412 13.7845C75.293 13.7845 75.1627 13.742 75.021 13.657C74.885 13.5663 74.7207 13.4672 74.528 13.3595C74.3353 13.2518 74.1087 13.1555 73.848 13.0705C73.593 12.9798 73.2898 12.9345 72.9385 12.9345C72.6212 12.9345 72.3435 12.9742 72.1055 13.0535C71.8675 13.1272 71.6663 13.232 71.502 13.368C71.3433 13.504 71.2243 13.6683 71.145 13.861C71.0657 14.048 71.026 14.2548 71.026 14.4815C71.026 14.7705 71.1053 15.0113 71.264 15.204C71.4283 15.3967 71.6437 15.561 71.91 15.697C72.1763 15.833 72.4795 15.9548 72.8195 16.0625C73.1595 16.1702 73.508 16.2863 73.865 16.411C74.222 16.53 74.5705 16.6717 74.9105 16.836C75.2505 16.9947 75.5537 17.1987 75.82 17.448C76.0863 17.6917 76.2988 17.992 76.4575 18.349C76.6218 18.706 76.704 19.1395 76.704 19.6495C76.704 20.2048 76.6077 20.7262 76.415 21.2135C76.228 21.6952 75.9503 22.1173 75.582 22.48C75.2193 22.837 74.7745 23.1203 74.2475 23.33C73.7205 23.534 73.117 23.636 72.437 23.636C72.046 23.636 71.6607 23.5963 71.281 23.517C70.9013 23.4433 70.5358 23.3357 70.1845 23.194C69.8388 23.0523 69.513 22.8823 69.207 22.684C68.901 22.4857 68.629 22.2647 68.391 22.021L69.0625 20.9245C69.1192 20.8452 69.1928 20.78 69.2835 20.729C69.3742 20.6723 69.4705 20.644 69.5725 20.644C69.7142 20.644 69.8672 20.7035 70.0315 20.8225C70.1958 20.9358 70.3913 21.0633 70.618 21.205C70.8447 21.3467 71.1082 21.477 71.4085 21.596C71.7145 21.7093 72.08 21.766 72.505 21.766C73.1567 21.766 73.661 21.613 74.018 21.307C74.375 20.9953 74.5535 20.5505 74.5535 19.9725C74.5535 19.6495 74.4713 19.386 74.307 19.182C74.1483 18.978 73.9358 18.808 73.6695 18.672C73.4032 18.5303 73.1 18.4113 72.76 18.315C72.42 18.2187 72.0743 18.1138 71.723 18.0005C71.3717 17.8872 71.026 17.7512 70.686 17.5925C70.346 17.4338 70.0428 17.227 69.7765 16.972C69.5102 16.717 69.2948 16.3997 69.1305 16.02C68.9718 15.6347 68.8925 15.1615 68.8925 14.6005C68.8925 14.1528 68.9803 13.7165 69.156 13.2915C69.3373 12.8665 69.598 12.4897 69.938 12.161C70.278 11.8323 70.6973 11.5688 71.196 11.3705C71.6947 11.1722 72.267 11.073 72.913 11.073C73.6383 11.073 74.307 11.1863 74.919 11.413C75.531 11.6397 76.0523 11.957 76.483 12.365L75.9135 13.4445ZM89.0601 11.209V23.5H87.8871C87.7057 23.5 87.5527 23.4717 87.4281 23.415C87.3091 23.3527 87.1929 23.2507 87.0796 23.109L80.6621 14.915C80.6961 15.289 80.7131 15.6347 80.7131 15.952V23.5H78.6986V11.209H79.8971C79.9934 11.209 80.0756 11.2147 80.1436 11.226C80.2172 11.2317 80.2796 11.2487 80.3306 11.277C80.3872 11.2997 80.4411 11.3365 80.4921 11.3875C80.5431 11.4328 80.5997 11.4952 80.6621 11.5745L87.1051 19.8025C87.0881 19.6042 87.0739 19.4087 87.0626 19.216C87.0512 19.0233 87.0456 18.8448 87.0456 18.6805V11.209H89.0601ZM98.2912 18.859L96.7952 14.7705C96.7215 14.5892 96.645 14.3738 96.5657 14.1245C96.4864 13.8752 96.407 13.606 96.3277 13.317C96.254 13.606 96.1775 13.878 96.0982 14.133C96.0189 14.3823 95.9424 14.6005 95.8687 14.7875L94.3812 18.859H98.2912ZM102.329 23.5H100.561C100.362 23.5 100.201 23.4518 100.076 23.3555C99.9515 23.2535 99.858 23.1288 99.7957 22.9815L98.8777 20.474H93.7862L92.8682 22.9815C92.8229 23.1118 92.735 23.2308 92.6047 23.3385C92.4744 23.4462 92.3129 23.5 92.1202 23.5H90.3352L95.1717 11.209H97.5007L102.329 23.5ZM107.596 17.3885C108.015 17.3885 108.381 17.3375 108.692 17.2355C109.004 17.1278 109.262 16.9777 109.466 16.785C109.676 16.5867 109.831 16.3487 109.933 16.071C110.035 15.7877 110.086 15.4732 110.086 15.1275C110.086 14.7988 110.035 14.5013 109.933 14.235C109.831 13.9687 109.678 13.742 109.474 13.555C109.27 13.368 109.013 13.2263 108.701 13.13C108.389 13.028 108.021 12.977 107.596 12.977H105.887V17.3885H107.596ZM107.596 11.209C108.418 11.209 109.129 11.3053 109.729 11.498C110.33 11.6907 110.826 11.9598 111.217 12.3055C111.608 12.6512 111.897 13.0648 112.084 13.5465C112.277 14.0282 112.373 14.5552 112.373 15.1275C112.373 15.7225 112.274 16.2693 112.075 16.768C111.877 17.261 111.58 17.686 111.183 18.043C110.786 18.4 110.288 18.6777 109.687 18.876C109.092 19.0743 108.395 19.1735 107.596 19.1735H105.887V23.5H103.601V11.209H107.596Z" fill="#0A0822"/>
</svg>
