<svg width="24" height="24" viewBox="0 0 24 24" fill="none" xmlns="http://www.w3.org/2000/svg">
<path fill-rule="evenodd" clip-rule="evenodd" d="M21.3943 2.67768C20.9656 2.24939 20.4514 1.91632 19.8853 1.70019C19.3192 1.48407 18.7139 1.38975 18.1089 1.4234C17.5038 1.45705 16.9127 1.6179 16.3741 1.89547C15.8354 2.17304 15.3614 2.56107 14.9828 3.03425L9.86911 9.42682C9.82879 9.47993 9.80065 9.54126 9.7867 9.60646C9.77274 9.67166 9.77331 9.73913 9.78837 9.80409C9.80342 9.86905 9.83259 9.9299 9.8738 9.98231C9.91501 10.0347 9.96726 10.0774 10.0268 10.1074C11.7028 10.9812 13.0063 12.4315 13.6971 14.1908C13.8068 14.4771 14.1651 14.5902 14.4034 14.3982L21.0377 9.09082C21.5107 8.71216 21.8986 8.238 22.1761 7.69929C22.4535 7.16057 22.6142 6.56941 22.6476 5.96439C22.6811 5.35937 22.5867 4.75409 22.3704 4.18805C22.1541 3.62202 21.8209 3.10794 21.3925 2.67939L21.3943 2.67768ZM12.0034 16.2C12.1543 17.5594 11.7223 19.02 10.4331 20.3091C8.19083 22.5497 4.97654 22.9542 2.05026 22.3062C1.72968 22.2342 1.6234 21.8348 1.79311 21.5554C2.45311 20.4754 2.31254 19.152 2.17026 17.8011C1.99026 16.116 1.80683 14.3897 3.16111 13.0354C4.7314 11.4651 6.5554 11.1668 8.14111 11.6451C9.00168 11.9057 9.79368 12.3942 10.4331 13.0354C11.1977 13.8 11.748 14.7788 11.9485 15.8365C11.9725 15.9565 11.9897 16.0782 12.0034 16.2Z" fill="#64C9EA"/>
</svg>
