<svg width="16" height="16" viewBox="0 0 16 16" fill="none" xmlns="http://www.w3.org/2000/svg">
<path d="M4.56282 3.86035L4.67805 3.87305C4.82802 3.89521 4.98222 3.95433 5.21126 4.07715L3.97395 5.31152C3.74299 5.54179 3.51718 5.76713 3.3177 5.98047L3.12825 6.18945C3.08918 6.23403 3.05096 6.28183 3.01106 6.33008C2.80343 6.17314 2.58027 6.03748 2.34407 5.92676L2.18098 5.85449L2.09309 5.81934L1.84016 5.71973C1.83734 5.71859 1.83644 5.71693 1.83626 5.7168H1.83528C1.83484 5.71615 1.83386 5.71447 1.83333 5.71191C1.83283 5.70952 1.83321 5.70773 1.83333 5.70703L1.83626 5.70312C2.21154 5.32898 2.61413 4.9277 2.97591 4.59766C3.15669 4.43274 3.322 4.29146 3.46321 4.18262C3.53753 4.12534 3.59802 4.08239 3.64583 4.05176L3.7513 3.99316C4.01419 3.88409 4.29268 3.83946 4.56282 3.86035Z" fill="url(#paint0_linear_4_344)" stroke="url(#paint1_linear_4_344)"/>
<path d="M11.9149 10.759C12.014 10.9424 12.0725 11.077 12.1024 11.2004L12.1209 11.2922C12.1604 11.5581 12.1345 11.8362 12.0438 12.1018L12.0008 12.2141C11.9823 12.2585 11.9265 12.3527 11.8114 12.5012C11.7022 12.6419 11.5607 12.8064 11.3953 12.9866C11.2298 13.167 11.0462 13.3578 10.8573 13.55L10.286 14.1233L10.2713 14.137C10.1767 13.8997 10.1084 13.7257 10.036 13.5735L9.95491 13.4143C9.86676 13.2536 9.76484 13.1012 9.65413 12.9553L9.76741 12.8635C9.90779 12.7423 10.0549 12.6052 10.2059 12.4592L10.6688 12.0012L11.9149 10.759Z" fill="url(#paint2_linear_4_344)" stroke="url(#paint3_linear_4_344)"/>
<path d="M11.6979 1.83325H12.0768C12.7012 1.83325 13.1197 1.83446 13.4313 1.87622C13.654 1.90607 13.7798 1.95192 13.863 2.00708L13.9342 2.06567C14.0152 2.1464 14.0838 2.26987 14.1237 2.56567C14.1655 2.876 14.1667 3.29271 14.1667 3.91528V4.29321C14.1667 5.0217 14.1597 5.32437 14.0905 5.55103L14.0573 5.64478C13.9818 5.82657 13.8557 5.98557 13.5485 6.302L13.1764 6.67798L9.278 10.5637C8.93731 10.9034 8.68091 11.1586 8.46062 11.3489C8.29455 11.4923 8.16875 11.5807 8.06706 11.634L7.97331 11.677C7.91186 11.6996 7.85682 11.7092 7.80046 11.7092C7.6851 11.7092 7.54753 11.6698 7.30925 11.4885C7.112 11.3385 6.88742 11.1219 6.58366 10.8215L7.59636 9.79419C7.95963 9.42542 7.97907 8.84573 7.65593 8.45532L7.58659 8.38013C7.21776 8.01679 6.63814 7.99823 6.24773 8.32153L6.17253 8.39087L5.16765 9.40942C4.85603 9.09658 4.6329 8.86714 4.47917 8.66626C4.29734 8.42866 4.25847 8.29259 4.25847 8.17896C4.25849 8.14922 4.26117 8.11968 4.26726 8.08911L4.29655 7.99146C4.34388 7.87377 4.44183 7.72468 4.63249 7.50708C4.72729 7.3989 4.83742 7.28184 4.9655 7.15063L5.40593 6.70825L9.30437 2.82153C9.82056 2.30687 10.0405 2.09741 10.2507 1.9856L10.3405 1.94263C10.5844 1.84189 10.8634 1.83325 11.6979 1.83325ZM11.8151 4.17407C11.1143 3.47564 9.97873 3.4755 9.278 4.17407C8.57637 4.87358 8.57639 6.00873 9.278 6.70825C9.97875 7.40687 11.1143 7.40676 11.8151 6.70825C12.5168 6.00873 12.5168 4.87359 11.8151 4.17407Z" fill="url(#paint4_linear_4_344)" stroke="url(#paint5_linear_4_344)"/>
<defs>
<linearGradient id="paint0_linear_4_344" x1="0.659809" y1="1.94966" x2="5.04697" y2="8.55328" gradientUnits="userSpaceOnUse">
<stop stop-color="#75EBBC"/>
<stop offset="1" stop-color="#64C9EA"/>
</linearGradient>
<linearGradient id="paint1_linear_4_344" x1="0.659809" y1="1.94966" x2="5.04697" y2="8.55328" gradientUnits="userSpaceOnUse">
<stop stop-color="#75EBBC"/>
<stop offset="1" stop-color="#64C9EA"/>
</linearGradient>
<linearGradient id="paint2_linear_4_344" x1="8.3834" y1="8.16479" x2="14.4201" y2="13.8377" gradientUnits="userSpaceOnUse">
<stop stop-color="#75EBBC"/>
<stop offset="1" stop-color="#64C9EA"/>
</linearGradient>
<linearGradient id="paint3_linear_4_344" x1="8.3834" y1="8.16479" x2="14.4201" y2="13.8377" gradientUnits="userSpaceOnUse">
<stop stop-color="#75EBBC"/>
<stop offset="1" stop-color="#64C9EA"/>
</linearGradient>
<linearGradient id="paint4_linear_4_344" x1="2.1918" y1="-2.78753" x2="15.9246" y2="13.6158" gradientUnits="userSpaceOnUse">
<stop stop-color="#75EBBC"/>
<stop offset="1" stop-color="#64C9EA"/>
</linearGradient>
<linearGradient id="paint5_linear_4_344" x1="2.1918" y1="-2.78753" x2="15.9246" y2="13.6158" gradientUnits="userSpaceOnUse">
<stop stop-color="#75EBBC"/>
<stop offset="1" stop-color="#64C9EA"/>
</linearGradient>
</defs>
</svg>
