<svg width="16" height="16" viewBox="0 0 16 16" fill="none" xmlns="http://www.w3.org/2000/svg">
<path d="M8.00018 1.61328C8.41369 1.61334 8.80258 1.79036 9.0744 2.09375L9.18378 2.23145L9.23358 2.30859H9.23456L14.6389 11.333H14.6398C14.7313 11.4915 14.7912 11.6657 14.8176 11.8457L14.8322 12.0273C14.8356 12.2104 14.8045 12.3922 14.7404 12.5625L14.6652 12.7295C14.5511 12.9451 14.384 13.1282 14.1799 13.2617C13.9761 13.395 13.742 13.4738 13.4992 13.4922L13.4045 13.4971H2.59393C2.4112 13.495 2.23076 13.4585 2.06268 13.3896L1.89862 13.3096C1.73961 13.2194 1.5994 13.1006 1.48553 12.959L1.38104 12.8105C1.28533 12.6549 1.22001 12.4826 1.18866 12.3037L1.16913 12.123C1.16053 11.9404 1.18625 11.7578 1.2453 11.5859L1.31561 11.418L1.36151 11.3311L6.76678 2.30762C6.8631 2.14885 6.98907 2.01086 7.1369 1.90039L7.29218 1.79883C7.45428 1.70752 7.63223 1.64868 7.81561 1.625L8.00018 1.61328ZM7.72577 4.84961L7.51874 4.88184C6.96949 4.99197 6.47383 5.28474 6.11151 5.71191C5.94246 5.90994 5.84502 6.15801 5.83319 6.41602V6.52734C5.84611 6.78733 5.94509 7.0347 6.11346 7.23047L6.19061 7.31055C6.40519 7.51661 6.69001 7.63297 6.98749 7.63574C7.28507 7.63845 7.57285 7.5274 7.7912 7.3252L7.80292 7.31445L7.81366 7.30273L7.90643 7.2041C7.91714 7.19479 7.92888 7.18665 7.94159 7.18066L7.98651 7.16797C8.00216 7.16585 8.018 7.16627 8.03339 7.16895L8.07733 7.18359L8.07928 7.18457C8.0952 7.19263 8.10982 7.20335 8.12225 7.21582L8.1535 7.25879C8.16145 7.27475 8.16661 7.29215 8.16913 7.30957L8.16815 7.36328C8.16496 7.38083 8.159 7.39761 8.15057 7.41309L8.11835 7.45508C8.09236 7.47939 8.05895 7.49389 8.02362 7.49805L7.89862 7.50488H7.88397L7.86932 7.50684C7.60971 7.5354 7.36835 7.65026 7.1828 7.83105L7.10663 7.91211C6.93778 8.11144 6.84156 8.3612 6.83124 8.62012L6.83221 8.73145C6.84673 8.99219 6.94786 9.23954 7.11835 9.43457L7.1955 9.51465C7.2576 9.5733 7.32639 9.62379 7.39862 9.66699C7.36751 9.68571 7.33718 9.70588 7.3078 9.72754L7.22479 9.79492C7.0113 9.9848 6.87443 10.2465 6.841 10.5303L6.84003 10.5439L6.83905 10.5586L6.83417 10.6367L6.83221 10.665L6.83417 10.6943L6.83905 10.7783L6.84003 10.7949L6.841 10.8105C6.87054 11.0586 6.97902 11.2898 7.14862 11.4707L7.22479 11.5449C7.4383 11.7345 7.71463 11.8389 8.00018 11.8389C8.24984 11.8388 8.49201 11.7592 8.69159 11.6123L8.7746 11.5449C8.98805 11.3554 9.12461 11.094 9.15839 10.8105L9.16034 10.7959L9.16132 10.7812L9.1662 10.7031L9.16718 10.6748L9.1662 10.6455L9.16132 10.5615L9.16034 10.5459L9.15839 10.5303L9.14081 10.4248C9.09672 10.2167 8.9971 10.0244 8.85175 9.86914L8.77557 9.79492C8.75085 9.77293 8.72474 9.7521 8.69843 9.73242C8.93783 9.66312 9.16731 9.56074 9.37714 9.42285L9.54706 9.2998C9.93416 8.99605 10.2219 8.58608 10.3762 8.12207L10.4338 7.9209C10.5494 7.44264 10.5211 6.94219 10.3547 6.48242L10.2756 6.28809C10.0406 5.77739 9.63975 5.36069 9.13885 5.10547H9.13788C8.70116 4.8826 8.20988 4.79437 7.72577 4.84961Z" fill="url(#paint0_linear_28_1668)" stroke="url(#paint1_linear_28_1668)"/>
<defs>
<linearGradient id="paint0_linear_28_1668" x1="-1.43915" y1="-3.76851" x2="14.351" y2="17.6361" gradientUnits="userSpaceOnUse">
<stop stop-color="#75EBBC"/>
<stop offset="1" stop-color="#64C9EA"/>
</linearGradient>
<linearGradient id="paint1_linear_28_1668" x1="-1.43915" y1="-3.76851" x2="14.351" y2="17.6361" gradientUnits="userSpaceOnUse">
<stop stop-color="#75EBBC"/>
<stop offset="1" stop-color="#64C9EA"/>
</linearGradient>
</defs>
</svg>
